<?xml version="1.0" encoding="UTF-8"?>
<svg id="Layer_1" xmlns="http://www.w3.org/2000/svg" version="1.1" viewBox="0 0 1019 356">
  <!-- Generator: Adobe Illustrator 29.7.1, SVG Export Plug-In . SVG Version: 2.1.1 Build 8)  -->
  <defs>
    <style>
      .st0 {
        fill: #fff;
      }
    </style>
  </defs>
  <path class="st0" d="M282.2-508.5c-.4,3.1-2.6,10.3-3.7,13.6-1.3,4.1-3.6,7.8-4.2,12.1l-13.6,6.5-9.3-3.8c-.8,3-2.5,8.3-4.5,10.6-3,3.5-10.3,7-13.8,10.5-.7,5.4-.5,12.5,1.7,17.5.5,1.1,3.6,5,3.1,5.5-7.2-6.7-17.6-9.3-26.4-13.5-3.8-1.8-9.4-4.2-12.8-6.4-7.3-4.8-6-10-4.3-17.8-.6-.7-13.5,9.2-15.2,9.5-2.9.5-8.6-1.7-12.7-1.2-3.5.4-5.6,3.9-9.6,4.4-4.2.6-6.8-1.3-10.2-1.3-2.5,0-4.8,1.5-7.4,1.3l13-9.1c.3-.5.7-1,.9-1.6,1.1-3.6,1.9-13.2,3.5-15.7,1.5-2.3,7-5,9.2-6.8,5-4.1,3.2-6.4,2.9-12.2-7.3.2-14.6,0-21.7-1.9-1.4,3.1.3,4.8.6,7.4,1.1,9-4.7,12.1-12.7,9.5-4.6-1.5-7-5.6-11.2.3l-34,42.7-2,25.3c1.5,4.5,6.2,4.7,9.5,1.7-2.8,7.4,0,13.8,2.3,20.8-1.8,1.8-6.6,11.3-8.1,12.1-1.4.8-5.8.8-7.7,1,5,10.7,12.6,18.5,10.6,31.4-.5,3.3-5.5,13.6-5.3,14.9.2,1.2,3.5,4.6,4,7.4.5,2.4.2,4.7.3,7.1.8.9,18.1-7.8,20.4-8.7,1.4-.5,3-.1,4.5-.6.8-.2,6.1-2.9,5.7-3.5-1.2-.4-3.3-1.7-4.2-2.6-2.9-3.1-5.9-16.4-6.7-21.1,1.4.7,1.5,3.1,2.3,4.4,2.2,3.4,11.6,6.1,15.3,8.3l15.7-11.8.3-1c-.5-1.9-1.9-4.1,0-5.8l16-11.5c1,.7-.7,1.8-1.1,2.8-1.2,2.6-2,5.5-3.1,8.1h18.2c.8,0,5.9-4.6,8-3.8l-.6,2.1c1.7,5.2-1,14.7,3.2,18.6,4,3.6,7.4,2.9,12.3,2.1,9.7-1.6,12.8-5.7,19-12.6-1.1,2.5-2.7,5.4-4.2,7.6-.8,1.1-2.6,4.2-3.5,4.8-2.5,1.8-9.3.9-12.3,1.8-4.2,1.2-12.8,23.2-14.5,28-1.2.1-.5-1.3-.4-2,.3-3.2.1-6.3.5-9.1.3-2.8,2.2-8,1.9-10.2-.2-1.8-4-8.1-6-8-1.7,0-17.6,4.1-18.4,4.8l-.5,1.1c.6,6.2,2.3,10.3,6.9,14.5-2.3.5-4.7.5-6.9,1.1-3.1.7-9.3,3.6-11.6,3.2-2.3-.4-5.8-2.3-8.4-3.1-5.1-1.5-23.3-7.2-27.4-5.3-1.1.6-10.7,19.2-8.6,22.1l4.8,2.5-21.1,1.9c0,2.5,1.8,4.2,1.9,6.7.1,1.5-.5,11.4-.8,12.6-.8,3-9.2,8.8-8.7,11.6,5.5,4.1,5.5,8.4,7.7,14,2.1,5.2,4.2,10.5,6.8,15.4-1.6,1.3-3.1,2.4-4.4,3.9-1,1.2-7.2,9.7-7.4,10.5-.2.7,2,12.8,2.4,13.6,1.4,2.7,7.1,1.7,9.4,2.7,1.2.5,4.2,4.3,5.6,4.7,1.3.4,6.6.3,8.1,0,4-.9,15.8-16.1,16.5-21,1.3,1,1.7,2.3,3.2,3.5,4.8,3.6,8.4,4.4,14.1,1.9l5.3,6.1,20.2-14c1.2.8,5.9,13.7,7.7,16.3.7,1,11.4,9.5,12.1,9.7,2.3.6,2.3-2.5,3.6-2.9.8-.2,5.6,2,8.2,1.9,4.3-.2,8.6-3.3,12.7-4.4l15.5,7.5c1.9-.6,3.9-2.6,5.9-3,3.1-.6,6.4,1.7,8.8-.7,1.3-1.3,1.4-5.9,3.2-7.7l1.6-7c0,3.6,0,10.2-1.6,13.4-3.1,5.9-14.4,7.9-14.4,16-3.6-1.4-4.7-7.5-7-9.3-1.1-.8-15.4-6.1-16-5.4-.1,5.1-1.1,11.3-3.9,15.6-1.3,1.9-3.5,3-4.2,5.3,1.2,5.2,4.4,9.5,7.5,13.7-3.4-1.5-6.8-2.3-10.6-2.5-5-.4-11.9.8-16.5-.2-2-.4-5.5-2.9-7.7-3.8-6-2.5-12.1-4.7-18-7.3-6.1,2.3-10.6,7.1-16,10.6-1.1-3,.9-5.7-.2-8.7-.3-.7.3-1.1-1-.9-1.1,1-2.4,2-3.7,2.7-2.5,1.3-10.5,5.7-12.4,6.1-7.3,1.5-20.7,0-29.3.8-6.9.7-13,2.3-19.5,4.5,6.1-5.9,22.4-9.3,24.1-18.5.3-1.8-.6-3.3-.1-4.5.3-.7,3.9-4.3,4.8-5.5.4-.5,1.3-1.1.3-1.6-3.8,3.4-13.5,1.5-16.9,3.5-1.8,1.1-6.1,9.2-8.1,11.1-2.7,2.6-4.4.7-7,.7-1.3,0-2.5.7-3.8.7-3.6,0-7.8-1.6-11.4-.6-2.2.7-8.7,9.1-12.3,9.5-2,0-6.7-4-8.9-4.5-4.1-.8-16.9,1.6-20.9,3.3-2.6,1.1-4.9,3.7-6.9,4.6-1.8.8-4.4.7-6.3,1.3-1.8.6-3.2,2.1-5.1,2.2,7.8-6.5,19-9.9,28.8-12.5,3.6-1,7.7-.7,11.1-2.3,4-1.9,7.3-7.5,11.1-10.1l7.9,1.8c0-3.5,5.5-10.8,5.6-13.6,0-2.4-2.3-8.9-3.7-10.9-.8-1.2-2.3-.6-1.8-2.3,4.8-1.2,11-6.7,9.2-12.1-.6-1.7-4.8-6.7-4.7-7.9.1-1.2,2.2-2.8,2.3-4,0-1.2-1.3-1.8-.9-3.4.2-.9,3.2-4.9,2.9-5.1-7.3-2.1-13.7,4.4-17,10.2l-1.6,8.4v-10.6c0-.4-1-1.3-.6-2.2.2-.2,1,.6,1.5.5.7-.1,7.5-9.5,8.2-10.9,4.5-9.6,2.7-24.3.5-34.3,4.9,1.2,9.8-1.8,12-6.2,1.9-3.6,4.1-16.9,4-21-.1-3.9-4.3-4.4-6.3-7.1-.8-1-5.6-11.4-5.6-12.1l5.4-12.3c.4-1.9-2.6-4.6-2.3-6.1.4-2.3,5.7-5.8,4.7-8.1-2.3-4.9-12.1-2.9-16.5-3.1l-8.7,12c2.9-7-.2-17.3,1.4-23.8,1-4.1,8.9-12.3,9.9-16.3.8-3.1-.6-5.4-.5-8.2.2-4.3,6.9-9.2,8.4-13.4-3.7-9.6-8.5-18.7-16-25.9,3.3.3,5.8,1.4,9.2.6,8.8-2.1,7.5-10.6,11.9-16.9l-13.1-4.2-11.2,3.2c2.5-2.3,3.6-2.1,5.2-5.3,5.7-11.5-2.7-10.4-10.4-14.2-4.6-2.2-10.7-6.4-14.4-9.9-.6-.6-3.5-3.2-2.9-3.9,5.3,4.3,10.6,8.7,17.3,10.5,7.8,2.1,14.8-2,21.8-5.1,4.6,3.4,20.2,6.1,22.9,10.3.8,1.2.8,2.6,1.3,3.8.2.7-.3,1.1.9.8,4-2.1,8-5,12.4-6.1,4.7-1.3,9.7-1.1,14.4-2.8,6.7-2.4,12.7-7.4,17.5-12.6,3-.8,8.7,5,13.5,2.6,3.6-1.7.4-8.8-2.8-8.9-1.2,0-4.3,1.3-4.7-.2,5.4-1.9,9.2-9.2,13.5-11.8,2.3-1.4,6-1.7,8.7-2.2,3.7-.6,17.3-2.9,19.8-1.4,8.6,4.9,6.5,18.8,8.6,27.1l12.5,10c1.4.3.9-.6,1-1.6.2-2.5-.7-5.5.9-7.4l25.9-16.6c-1.8,6.4,2.1,13.7,6.3,18.4l-.6,9.1h12.5c.5,0,5.4-5.7,8.4-6.9,7.2-2.8,9.5,1,13.8.4,3.3-.4,10.4-7.3,12.2-10.1,2-3,5.5-11,5.5-14.3v-9.9h.6c-.4,4.2.5,9,0,13.1Z"/>
  <path class="st0" d="M562.3-398.2l1.3,6.1c.8,3.1-1.7,7.3-1.8,9.7,0,1.1,1.2,2,.8,2.8-.3.6-5.4,6.6-6.4,7.7-2.7,3-5.9,5.6-8.6,8.6-.3,1.5.6.9,1.6.9,2.5.2,4.9,0,7.4-.6-1.1,2.4-4.9,6.7-4.5,9.2.2,1.5,4,4.7,5.4,4.8,1.6,0,7.2-.7,8.8-1.4,3.5-1.4,7.9-5.9,8.1-9.8.2-3.5-3.4-9.4-7.7-7.9-.2-.1.3-.8.6-1,5.3-3.4,20.8-5.6,27.9-9.2,4.8-2.4,7.5-4.6,8-10.3,7.3-.4,12.5,0,17.5-5.8,7.7-9,6.5-20.4,8-31.3,1.1-.2.7,1.5.7,2.3-.1,3.9-1.3,5.5.5,9.7,1.4,3.3,8,12.7,12.3,10.4v4.5c1.1,1.1,15.2-4.1,17.8-4.4,2.7-.3,5.2,6.3,5.3,8.6.1,3.7-3.2,7.9-2.9,11.8.9,2.1,8.6,6.1,10.2,8.3,1.5,2.1,2,6.4,3.2,8.9,2.2,4.6,6.2,5.6,9.9,8.6,0,1-10.2,2.7-11.7,3.6-2,1.2-2.4,5.1-4.5,7-1.9,1.7-4.8,1.9-6.7,3.5l14.1,4.2-8.6,17.2,4.2,15.1-3.6,6.4,3.5,9.3,7.7-13.4c0,5.4,0,10.9,0,16.3,0,1.8.7,3.6.7,5.7,0,4.9-1.3,13-4.2,16.9-3.6,4.8-6.8,3-10.5,4.9-2.4,1.2.2,7,1.4,8.8,2.9,4.7,8.8,7.1,7.1,13.7-1.4,5.6-5.1,6.2-7.9,10-2.1,2.8-4,5.8-6,8.7-4.3,6,3.9,3,7.8,3.9l6.2,8.8c1.2-1.3,2.6-2.5,3.9-3.8,2.1-2.2.2-2,4.7-1.3,1.3-4.3,2.1-9,1.3-13.4,1.2-1.1,16.4,5.1,22.4,1,2.9-2,6.8-9.2,6.3-12.8-.4-3.6-3.1-5.4-3.6-7.2-.5-1.5,0-2.9-.8-4.9-1.3-3.5-5.4-7-7.6-10,.7-.6,2.4,1.4,2.9,1.9,3.8,4,6.1,9,8.7,13.6.6,1,1.8,1.6,2.1,2.4.8,1.9-.4,4.1,2.9,3.8l-5,13.2.2,6.6c-11.7-.6-13.6,14.3-24,14.7l5.7,9.3c0,1.2-8,1.2-9.6,1.6.8,4.6-.1,7.7,3.8,10.9-1.4,0-2.3-.9-3.7-1.1-4.7-.8-12.2-2.7-16.6-2.6-2.3,0-4.7,1.9-7.3,1.2l2.6,3.5,12.1,3.5-11.7-1.4c-5.6-6.8-13.3-3.5-19.7-8.5-.9-.7-5.6-5.7-5.6-6.4l8.5-11.8c.9-2-.2-4.4.7-6.4.4-.8,5.3-4.4,6.7-6.1.6-.8,4.3-6.3,3.8-6.7-5.3,2.3-11.5,3.4-15.7,7.7l1.5-5c-2.4-.8-3.4-3.7-6-3.9-4.1-.4-9.5,6.1-13,6.7-2.6.5-7.4-1.2-10.3,0-1.7.8-6.7,11.3-9.5,13.5-2.5,1.8-8.6,1.7-10.1,3-.5.4-.9,2.8-1.5,3.9-5.2,8.5-11.7,5.7-17.4,10.8-3.3,2.9-2.7,5.1-4.4,8.4-2.6,5-9.6,10.7-15,12.6-1.6,0-1.5,0-.1-.8,4.7-2.3,13-8.6,11.2-14.7-.9-3-10.6-10.8-13.5-12.7-1-.7-7.2-4.1-7.9-4.2-2.2-.5-9,.7-9.8-1.1l2.5-2c-2.8-5.9,2.4-11,3.3-16.8-2.6,1.2-6.1,4.4-8.8,5-3.7.8-7-1-10.1-.5-1.4.3-3.4,2-5,2.6-4.6,1.7-8.8,3-13.9,2.4l9.2-2.7c1.8-.9,7.2-5.7,8-7.3,2.1-4-.2-12.9.9-17.7.5-2.3,4.3-6.9,5.5-9.2l-6.3-6.4c3.7-4.7,7.5-15.9,4.7-21.3-.5-.9-1.8-1.4-2.1-2.4-.7-2.4.6-5.7-.7-8.2l-5.8-8c.7-.8,8.3,8.9,9.3,4.5,1.3,3.4,3.2,3.3,5.6,5.2,1.2,1,6.5,5.8,7.5,5,1.1-3.5,1.6-6.5,1.3-10.2,10.5-.7,20.2-2.5,26.7-11.4,8.3-.5,17.6-1.6,25.6-3.9,5.2-1.5,9.9-5.9,12.3-10.7,3-5.9-3.7-5.6-4.4-10.5,3.4,3.4,10.8,1.9,15.2.9,7.2-1.7,11.4-6.5,18-9.2-1.6-3.2-3.8-5-6.4-7.3,4.1-4.9,7.1-10.3,12.1-14.4-2.9.1-5.7,1.2-8.6,1.3-4.1.2-9-1.9-12-1.2-1.1.2-5.8,3.4-6.6,4.3-1.7,1.9-1.4,4.5-3.5,5.8-.3-1.9.4-3.7.7-5.5.1-.9-.5-1.9-.4-2.6.1-.9,3.5-1.6,3-5.7-.2-1.4-4.1-4.5-4.8-7.4-1.2-4.6,2.8-9.8,4.8-13.8.1-.5-.6-.4-.9-.3-1.8.5-12.7,4.1-13.7,4.8-4,2.6-7.5,8.8-11.1,12l-10-.2c-.9,5.8-3.3,9.5-8.2,12.6-8,5.1-16.5,2.2-24.5,7.5l-23.6,17c-.4-.4,7.3-8.1,7.9-9,.5-.7,6.2-9.4,4.5-8.9l-6.1,3.2c-.4-6.3-2.1-12.3-.3-18.5,2.9-2.4,8.9-11.1,11.8-12.5,4.7-2.1,9.9,0,15.7-4.2,2.6-2,6.7-8.7,6.7-11.8v-11.2ZM627.4-221.3c.6-.5,7.4-7.9,7.8-8.5.9-1.5,4.1-11.3,3.9-12.7-.3-2.4-11.2-9.6-13.4-12.8-1.1-1.5-1.6-2.2-1-4.2.2-.7,5.9-8.2,6.8-9.2,1.2-1.4,3.7-4.1,5.1-5.1,4.2-3.2,10.4-3.6,12.8-8.3.4-4.6-9.9-5.9-13.1-6.1-2.6-.1-6.2,1.9-7.2-1.7-.8-2.7,1.7-14.3,2.7-17.4,1.8-5.1,6.2-9,8-14.1-8.6,6.1-19.5,5.2-29.4,7.4l-4.9,8.7c-7.2,3.8-24.3,7.5-29.3,13.4-4.9,5.8.2,9.5-.6,14.2-.5,2.6-4.7,6.9-4.7,9.2l4.3,9.5c-1.4,2.9-1.6,6.9-3.1,9.6-1.1,1.9-4.8,4.6-5.7,6.5-.5,1.2.5.8.9,1,2.3.7,12.4,3.5,13,5.5-.7,6.6-2.9,13.6-5,20l16.3-3.8c3.1,1,7.7,8.9,10.8,8.8,4.2-.1,10-7.9,13.1-8.6,3.2-.8,8.3,2.1,12.1-1Z"/>
  <path class="st0" d="M463.8-348c.3,2,2.6,4.8,4.2,6.1,2.4,1.8,5,1.9,7.1,3.2,3.2,1.9,6.5,7.4,10.5,8.7-2.7.3-4.9-1.6-7.7-1.3-2.3.2-8.3,3.4-9.2,5.5-.7,1.5-.7,4-1.5,6.2-1.8,4.8-5.8,5.8-4.3,11.7.8,3.2,9.6,16.5,9.2,18.1l-14.9,9.3-.4,1.3c3.3,2,12.8,5.5,14.8,8.6,1.2,1.9.8,7.7,1.4,10.1.5,1.8,3,4.6,3.7,6.5l-2.5,2.5,5.7,3.5c-7.4-.5-12.4-7.1-19.8-5.7,1,2.1.8,5.9,1.6,7.7,1.2,2.7,10.2,6.7,11.8,8.8,1.5,2,7.2,19.3,8.6,19.3,1.7-1.3,2.4-3.7,3.8-5.1,4.9-5,11.9-2.6,17.6-4.8,2.2-.9,5.6-3.6,7.7-5.1.5-.4,1.2-1.7,1.9-.6l-13.2,12.5,2,4.5-13.2,11.8c-.2,6.3-5.8,3.8-9.5,6.5-1.4,4.7-.4,9.7-.8,14.6-.2,3.4-2.9,4.1,2.2,6.9l6.2,2.4c-5.6.6-10.7-3.8-15.7-4.4-4.8-.6-11.5.8-15.8-.2-2.5-.6-7.4-5-9.9-5.5-2.2-.5-3.8.6-5.9.5l3.2-12.8c-.6-.6-5.3,2.7-6.4,2.9-1.4.3-2.4-.4-3.4-.2-3.8.9-7.6,2.5-11.3,3.7-1.4-5.6-1.2-11.5-6.7-14.7-1.8,4.6-7.9,6-12.5,6.4,2.1-2.1,5.5-2.6,8-4.5,3.4-2.6,4.6-7.1,7.1-9.5,2-1.9,5.1-2.2,7-5.2,2.2-3.6,0-8,1.1-11.1.7-2,8.5-4.7,4.4-10l4.7-1.2c1.8-1.1.2-4.9-.6-6.4-1.6-2.9-12.5-14.8-12.5-16.3.6-2.4,3.4-3.2,4.8-4.8.9-.9,6.2-6.6,6.4-7.1,1.3-2.9-1-4.7-.8-5.9.3-1.8,7.9-9.9,6.9-11.3-8.4-1.1-8.2-9.8-14.9-12.9-1.3-.6-4-1.6-5.3-.6l-5.4,6.8c.7-4.8,4.1-7.7,6.3-11.6,3.2-5.7,6.8-18.4,8.3-25,.2-1.1.2-2.2.2-3.4,3.8,4.2,7.7,2,10.8-1.7.3-.8-.2-1.2-.5-1.8-2.3-4.4-7.6-9.6-10.8-13.5-.9-6.4,2-14.5-4-19.1,7,1.2,14.5-5.8,14.1-12.8-.3-5.7-7.7-13.1-8.7-18.2-.4-1.8,1-4.3-.3-6.4-.2-.2-3.8,1.6-5.6-.2-1-1-4.1-8.8-5.4-10.9-1-1.7-2.2-3.3-3.7-4.6,1.4-.8,2.2,1.2,4,.8,1.2-.3,4.5-2.2,6.3-2.7,1.7-.6,3.4-.8,5.1-1.3-3.8-1.8-8.4-13-10.7-14.4-2.8-1.7-5.5.4-8,0-2.6-.5-5.3-4.5-8.1-5,3.6-1.7,3.5-9.2,2.2-12.1-1.1-2.4-8.2-7-9.5-10.3-5.1-1.1-11.8-4.3-11.9-10.2l3.5,5.1c3,3.5,8.9,3.1,10.3-1.3,5.4,3.5,11.1,7.4,17.4,8.8,6.1,1.3,13.5,2.4,19-1.2.9-.6.6-1.9,1.6-1.9l-3.5,18.5c4.6-2.6,11.1-5.7,15-9.3,2.7-2.5,6-9.3,8.6-11.2,1.7-1.2,6-.1,6.1-4.1,0-1.8-3.8-7-1.6-7.3,2.6.3,6.2,2.1,8.5,2.4,4.4.5,13.1-5.9,15.8-9.4,1.7,1,3.8,1.6,5.8,1.8,5.9.5,13.4-1.1,19.8-.7,2.4.1,5,.8,7.3,1.3-.1,1.7-2.5,0-2.9,0h-14.1c-.4,0-4,.7-4.8.9-4,.9-8.1,3.3-12.1,4.2l1,1.3,6.7,1.9c-3.4.5-6.6,3-9.5,4.9-3.2,2.1-11.8,7.1-12.2,10.8-.4,3.3.6,7.3-.3,10.6l-8.7,9.9,9.1,1.5c3.6-1.9,7.8-2.6,8.8-7.2l1.9-7.4c1.5,8-3.2,13.9-3.8,21.4-.3,3.7-.3,9.8,0,13.4.1,1.4,1.3,3.1,1.2,3.7-.1.7-2,2-2.6,3.2-3.9,7.5-2.2,17.1-5.3,24.1-1.1,2.4-7.9,9.5-8,10.5,1.6,3.8.4,10,5.2,11.4,5.1,1.6,8.4-3,11.1-6.6.5,4.4-3.9,8.1-5.3,12-1.1,3.2-.8,6.4-.8,9.7l-7.7-3.2c.4,3.8-.6,8.8,0,12.5Z"/>
  <path class="st0" d="M797.7-437.9c-.2,2.8,5.1,3,5.1,5.4l-6.3,7.8,2.3,9.5-12.6,6.4c0,.7,4,4.7,4.6,6.3,1.4,3.8-3.4,9.4-3,13.9-4.4,3.6-10.2,5.5-9.9,12.2l2,.4v6s4.8-5,4.8-5c4-1.2,8.9-2.1,11-6.2,1.7-3.4-.5-5.8,5.4-5.3,4.7.4,6.5,3.1,12,1.7,5.4-1.4,8.9-4,11.7-8.8,1.2,4.3,1.9,11.6,3.7,15.5,1.2,2.5,10,3.6,12.2,2.9.8-.2,1.2-1.2,1.8-1.4,4.1-1.7,7.5-3,8.3-8,1-.2.7.9.6,1.6-.2,1.3-1.8,4.4-2.7,5.3-1.5,1.5-4.9,1.7-5.4,2.3-.4.4-.4,1.8-.9,2.6-2.9,4.7-18,5.7-22.1,11.2-5.1-2.3-10.2-5-15.9-5.1-3.8,0-8.7,1.8-12.1,1.8-2.1,0-4.8-1.2-7-1.2-7.2,0-5.8,5-9.9,9.4-.3,1.2.1.7.8,1,4.8,2.3,9.9,5.7,15.2,5.6l-.5,5c5.7.8,5.8,6.2,8.2,8.7,1.1,1.2,2.7,1,3.2,2.2-6.4-3.1-21.1,4.5-23,10.6-.4,1.2.2.9,1,1,3.1.4,4.7-1,7.4-1.9.1,1.8-2.4,3-2.4,4.7,0,3.2,2.6,9.1,4.8,11.6-3.3,2.7-5.4,6.1-7.2,9.9-.9,1.9-1.8,6.5-2.4,7.5-.6.9-4,3.1-5.3,4.6-3.1,4.1-3.2,9.8-3.8,14.8-1.9.9-4.1,1.2-5.9,2.4-.6.4-1.2,0-.8,1.4l16.6,3.2c-.7,4.3-1.1,10.1-.6,14.4.3,2.6,2.8,7.6,2.6,9.6-.1,1.3-2.6,4.1-3.2,5.8-1,2.6-1.3,4.7-1.6,7.4l-15.7,8.6-3.9,8c1.2,1,11.1-6.9,13.4-7.4,2.1-.4,5.5,4.2,11.6,2.6,2.6-.7,8.3-5.6,6.4-8.6,4.4,1.3,8.1-.1,10.6-3.8.8,3.1-3.7,5.7-3.5,8.7.1,2.1,4.4,4.9,6.6,4.7,3.4-.2,16-4.1,19.4-5.6,9.1-4.1,3.7-5.6,2.1-12.9.2-.3,1.7,1.6,2.4,1.8,1.4.4,9.1-3.8,10.6-5,1-.8,2.2-3.4,3.4-3.8,1.4-.6,1.3,3.2,3.3,3.7,1.7.5,3.2-.7,4.3-1.8.5,4.1-5.7,1.7-7.4,2.2-.6.2-10,6.2-10.5,6.8-2.7,2.7-1.2,6.7-6.8,11.1-3.3,2.6-15.9,7.5-6.3,10.9-4.8,2.2-7,7.5-10.3,11.5-1.8,2.2-5.5,7.1-7.4,8.6-2.4,1.9-9.5,2.4-12.7,5.7-.7.8-.3,1.8-.8,2.6-1,1.8-5.9,3.4-8,3.2.6-1.1,2.2-.8,3.5-1.9,2.4-1.9,1.7-4.4.4-6.9-3.3-6.2-6.9-.5-9.5-.3-.8,0-1.6-1-2.5-1.2-3.4-.5-13.8,6-15,5.1l6.4-12.8-16.2-3.8c0-4-4.2-3.5-7.4-3.9,1.2-5.5,7.4-14,5-19.3-.2-.5-2.4-3.5-2.7-3.7-1-.5-.9.4-1.1.8-1.7,2.9-1.4,3.7-4.7,5.5-5.9,3.2-10.3,2.9-16.3,4.2-2.5.5-3.9,2.5-6.4,2.9,1-1.6,3.1-2.2,4.5-3.5.7-.6,1.2-2.1,1.3-2.2.6-.4,2.6.8,4.4.3,1.2-.3,10-6.1,10.9-7.1,2.8-3.1,1.6-7.6,2.9-9.9.6-1.1,7.9-4.5,9.3-6.7,1.2-1.9-.3-2.9.2-4.2.6-1.4,5.2-4.4,6.1-6.2.2-1.2-5.8-5.4-7-5.7-1.9-.5-3.1.7-4.5,0-1.6-.7-5.2-6.9-7.7-8,7.7-1,7.1-11.2,10.3-16.2,1.4-2.3,9-6.9,9.4-9.8,0-1-.9-1.5-1.5-2.1-2.9-2.9-8.1-6.1-10.6-9.2-.4-.6-.8-.7-.6-1.6,1.8-.3,3.4-2.7,4.4-4.3,1.7-2.7,3.3-8.5,4.6-10.1,1.3-1.6,6-2.5,6.7-4.1.9-2,.3-6.5,2.2-8.9-7.5-3.2-12.4,2.8-14.1,9.6l-2.6-1.7-4.4,4.2,3.2-10.2-7-2.3c1.4-2.4,6.4-7.3,6.9-9.7,1-4.2-.6-9.3-.4-13.5,6.7-3.4,11.4-10.4,15.2-16.7-3.6.3-7,1.7-9.9,3.8-5.3-9-9.5-.3-15.3,3-3.8-.4-9.8-3.3-13.4-2.9-.5,0-8.3,2.4-8.8,2.6-.9.4-3.6,3.7-4.7,4.4-1.1-1,1-1.8,1.5-3,.4-1.3.1-3.2.8-4.6,7.5,3.8,5.6-1.2,7.4-2.6,1-.7,4.4-.9,5-1.8,1.2-2.3-.8-4.6.1-6.9.5-1.2,8.1-8.3,8.9-8.5l3.8,3.2c5-.7,9.9-1.8,15-1.3l-5.7-12.1c1-.1.4,1,1.4,1.5,7.3,3.4,17.6.6,25.4,2.3.5-.4-5.3-9.2-5.6-10.7-.7-3.4,1.1-6.9.5-10.4,3.4.3,10.2,2.2,13,0,.9-.7,3.2-8.6,4.4-10.2,7.9,1.4,21.5-4,15.1-13.4l-3.7.5c4.5-6.5,13.1-9,19.8-13.2,4.1-2.6,8.3-5,10.1-9.7,2.1-5.4,3.3-10.8-1.7-14.8,4.3.6,5.7,5.4,5,9.1-.3,1.5-2.2,3.6-2.3,4.7,0,1.3,2.3,2.5,1.5,4-9.5,4.5-15.8,14.3-24.7,19.8Z"/>
  <path class="st0" d="M376.2-366.3h5.1c-.6,4.9,3.6,7.4,6.3,10.6.1.7-6.6,10.5-7.3,11.1-2.1,1.7-8-.3-11,1.1-1.9.9-2.9,4.5-4.5,5.9-2,1.8-7.9,3.5-9.1,4.8-.8.9-.5,2.3-1.3,3.2-.8.9-6.2,3.6-7.7,4.1,1.9-2.8,5.5-4.2,7.3-7.1,1.8-2.8,3-7.5,4.8-10.5,0-.3-4.1-1.6-5-4-1.6-4.3-1-12.8-2.2-17.6-1-1.1-4.5-10-6.3-8.8-.8,2.8-2.4,5.7-2.6,8.7-.1,2.2.6,4.2.7,6.3,0,.7.4,2.4-.7,2.3.3-3.2-1.7-6.4-3.6-8.9-1.8-2.4-10.1-8.6-10.4-9.5-.4-1.3-.3-4.8,0-6.1.5-2,2.8-2.7,2.4-4.9l-10.8,1.2-3.9-7.8-1.3-.4-6.4,9.3c-1.7.6-3.5.1-5.3.5-7.8,1.6-5.4,3-8.7,8.6-3.6,6-7,10-12.9,14,4.5,4,7.7,9.3,10.1,14.9l-6,21c2.6,3.7,4.6,8.5,9.3,9.9l-.4,1.3c-5.7,3.3-.8,12-2.3,18-.4,1.4-3,5.2-3.8,7.1-2.7,6.2-6.1,12.2,4.6,9.4,1.3,3.5,3.2,6.8,5,10,1.1,1.8,4.7,8.4,5.8,9.3,2.2,1.9,3.1,1.1,4.5-.8-.6,3.1-2.3,5.8-3,8.8-.8,3.4-2.2,11.7-.2,14.4.7.9,2.5.8,3,1.7.3.6-1.4,6.9.3,8.1,6.9.5,13.9.3,20.9.2,3.6,0,6.5.7,10.6-.2,2-.5,2.6-2,4.4-2.3-1.9,3.7-4.4,7.8-3.5,12.2.8,1.3,18,5.4,20.6,5.7,5.9.6,16-.2,21.3-2.8,2.1-1,1.5-4.2,5.9-3.8,1,0,2.2,1.1,3.3,1l3.9-5.8c1,.5-.2,1.5-.4,2.1-.8,2-3.5,7.3-5.1,8.4-1.3.9-4.6,1-5.4,2.3-1.1,1.8-.2,5-2.5,7.7-.6.7-10.6,7.9-11.5,8.3-1.6.7-3.4.7-5,1.4-.8.3-1.6,1.6-2.2,1.7-1.6.3-4-4.1-6-2.8-.8.5-7.9,14.2-7.7,16.3l-4.9-5c-7.7,2-13.8-1-20.9-2.7-2.8.4-10.9,11.8-15.7,10.9l5.4-4.5c4.4-5.8-.8-12.3-7.3-10.8l1.8-7.3c-2.4-1.9-5-8-8.3-7.3-1.8.4-8.3,4.4-9,4.3-6.1-6.5-12.7-15-22.8-12.7.3-2,5.4-2.1,5.8-2.6-2.7-2.8,1.9-6.7,3.1-10,.3-.7,1.4-3.4,1.4-3.8v-11.8l-5.7,9.6c-.3-8.3-7.1-6-11.2-9.6-1-.9-5.8-8.8-5.9-10-.5-4.3,3.6-13.2,3.7-17.9,0-3.5-2.9-3.5-3.2-5.8-.5-3.6,4.3-9.2.3-13.7-1.2-1.4-4.4-1.8-5.4-2.9-1-1.1-1.1-4.7-3.2-6.1,1.1,0,2-.5,2.8-1.3.6-.6,6.5-9.4,6.6-10,.4-1.5.5-14.7.1-16.5-.2-1.3-4.9-6.7-6-7.4-1.8-1-4,.2-3.6-1.9,5.9-.4,11.6,1.4,17.2,2.9l1.3-.7-3.3-15.9-8.8-7.2c6.5-5.8,14.6-10.9,20.1-17.6,2.7-3.3,5.5-7,4.8-11.5,6.3,2.3,10,6.1,16.9,3.1,9.2-4,13-11.7,15.8-20.9,7.7-1.7,16.1-2.7,23.3-5.7l3.3,4.3c8.9-1.3,15.7-6.7,16.9-15.9l.6,5.4c-.5,5.7-6,14.9-2.8,20.2,2.1,3.5,8.4,1.9,12,3.3,3.4,1.3,6.9,5.3,10.6,6.7l.5.7c.1.6-.6,1-.6,1.2v15.7Z"/>
  <path class="st0" d="M972-430.8c1.1.1,3.7,1,5,1.4,1.6.5,13,5.2,13.5,5.7,2.6,2.4,4.1,9.1,6.6,12.6,1.2,1.7,4.7,4.1,5,4.6.8,1.6.1,5,.5,7.2.5,3.1,3.6,7,3.7,9.2,0,2.4-2.7,4-3.7,5.8-3.9,6.6-4,10.5-6.2,16.8-.2.5-6.3,7.1-6.7,7.3-1.7,1.1-5.5,1.5-7.6,3.3-1.9,1.6-3.8,6.1-5.1,8.3-5.7-1-11.5-2.3-17.3-1.3l-5.8-9.3-3.6,4.4c-7.1-.8-14.1,1.3-20.4,4.5-1.4-.5-2.4-3.8-3-4.2-.7-.4-1.9,0-2.7-.8-1.2-1.3-3.4-9.7-5.2-10.2-2.6,0-6.6,3.7-8.8,3.5-1.9-.2-7.9-4.2-10.7-5-2.5-.7-5.6-1-8.2-1.1-1.4-1.2,6.5-6.2,7.1-6.7,3.9-3.9,2-8.8,3.2-13.8-1.1-.3-1.3.5-1.9,1-3.9,2.9-7.3,8.2-11.2,11.2-3.3,2.5-8.4,3.5-9.3,8.2l-8.2-1.2c-1,1.2,4.5,7.6,5,9.4,1,3.8-.6,8.8-2.1,12.3-1,2.4-4.5,6.9-3.9,9,.7,2.4,9.1,13.4,11.2,15,2.4,1.8,5.5,2.4,8.3,3.5.1,1.4-1.2,2-1.6,3.2-.4,1,0,2.6-.4,3.1-.4.7-4.1.6-4.4,2,4.1,1.4,8,3.5,11.2,6.4.9.8,1.6,2.6,2.2,2.9,1.1.7,3.2.1,5,.8,1.8.7,4.6,4,6.6,5-3.6-.2-5.8-2.3-9.8-1.5-6,1.3,1.8,7.2,2.1,10.5.4,4.3-3.6,6.1-3.8,9.8-1.1.2-.7-1.5-.5-2.1.4-1.6,1.8-3.1,1.8-4.9h-11.2c-.9,0-5.5,3.1-7.7,3.2-3.8.2-9.5-2.9-13.7-2,.9-3.5,1.2-7.4-2.4-9.4-8.1-1.6-16.3-3-24.5-2.7.3-1.1,1.9-1.1,2.9-1.9,2.7-2.3,1.7-3,2.7-5.6.8-2.1,2.9-6.6,3.2-8.3.9-4.6.3-9.9,3.3-14.2-3.8,1-6.4.2-9.8-1.4-1.6-.7-3.1-2.7-4.8-2.8-.9,0-6.1,2.9-5.2.7,1.8-4.4,17.5-7.5,20.4-14.2,2.7-6.2-2-7.6-3.1-13,5.3-1.1,18.1-7,21.3-11,3-3.9,1.7-7.7,3.5-11.8,1.6-3.6,7-7.6,7.6-10.9,1-4.8-.1-9.6-3.7-13l17.7,4.3c8.4-.1,13.9-6,20-10.7,0,2.7,2.4,3.2,3.9,4.8,2.1,2.2,4.5,6.1,7.1,7.6,1.7,1,4.2,1.4,5.9,2.4,6.5,3.9,10.2,8.7,19,6.9-1.6,5.6.8,12-1.9,17.3,3.3-.4,7.6-.5,9.6-3.5.8-1.2.7-3.1,1.9-3.5,4.6,8.4,4.1,18.2,16.6,12.5,4-1.8,9.4-6.3,7.3-11.2,3.1-1.1,4.9-.2,8-2.3,4.9-3.3,9.3-9.3,9-15.3-.3-7-5-16.9-8.2-23.1-3.3-6.2-11.8-8.6-17.7-11.7l-12.5-1.9c3.2.3,6.8-.4,9.9,0Z"/>
  <path class="st0" d="M1002.4-291.4c-.3,4.7,0,11.9,5.1,13.8-2.5,4-3.4,8.6-5,12.9-1.3,3.4-4.1,6.7-4,11.1,4.6.3,4.7,3.9,9.5.9,1.7-1,2.3-2.9,3.2-4.5l2-6c.6,6.2-3.8,14.9-10.2,16l-.7-3.2c-2.9,1.5-5.8.8-8.6,1.3-1.6.3-10.1,4.6-11.6,5.7-2.8,2.2-4.1,6.2-6.4,9-2.6,3.1-6.5,4.2-7.8,8.2-.7,2.1-.8,4.5-1.6,6.7-3.1,8.8-10.2,7.5-16.2,12.6-2.5,2.2-3,5-5.2,6.9-1.9,1.7-8.2,3.6-8.5,4-.8,1.3,1.1,5.7-2.5,8.9-5.1,4.5-21.1,1.5-21.9,2.6,0,2.8,1.5,4.7,3.5,6.4l7.3,3.2c-6.7,1.6-9.6-4.7-15.3-5.1l1-3.2c-2.7-3.9-5.2-2.1-8.3-2.5-4.2-.6-7.1-3-11.2.6-.8-.8,2.7-4.5,3-5.6.4-1.7-.3-5,.3-5.8.5-.7,10.8-4.3,5.3-9-3.8-.4-6.8,5.5-9.2,6-.9.2-4.2-3.8-8.3,0-1.3,1.2-.7,3.3-2.6,2.8.2-2.4-2-3.2-3.2-4.8-.7-1-4.9-6.7-5-7.1-.4-1.4,1.3-3.2,1.1-5.5-.2-1.8-1.8-4.6-2.3-6.8-.6-2.5-.4-9.1-2.5-9.7-3.4-.8-4.3,8.4-7.5,10.2-1.7,1-3.2.4-4.9.9-6.6,1.9-13.7,9.8-16.9,15.7l-.6-2.6c-4.5,4.5-9.9,8.2-15.7,10.9,3.1-4,9.2-5.1,12.2-9.3,1.2-1.7,1.4-3.8,2.5-5.1,1-1.1,2.6-1.1,3.3-2,1.5-1.9,1.3-5.5,3.8-7.5,1.8-1.5,7-2.8,9.3-2.8,4.2-.1,10.5,2.9,5.4-4.8,3-4.4,7-10.2,6.4-15.8,4,1.5,7.1,5,11.1,6.5,6.1,2.3,10.3,2.4,14.9-2.7l1.9,2,13.3-4.6,12.6,15.7c2,1.1,3.4-1,5.4-1,2.2,0,5.3,1.9,8,1.3.8,2.4.1,11.6,3.6,12.1l20.9-5.9c3.2-1.5,6.7-3,9.1-5.6,2.7-3,5.2-7.9,2.6-11.5-1.4-1.9-6.6.4-8.6-.3,3.4-2.1,6.4-4,8.9-7.1,1.6-1.9,6.8-10.3,7.4-12.4,1-3.8.3-8.6,2.9-12.2-6.1,2.8-22.2-2.8-26.7,2.1-1,1.1-.4,4.3-2.1,5,.4-3.5-2.9-5.7-3.6-8.9-.5-2.2.2-6.1-.9-7.4-.4-.5-7.5-3.7-9.2-4.9-4.2-2.8-10.2-10.7-14.2-11.4-3.5-.6-6.2-.3-10-1.5-.7-.2-1.9-.2-1.8-1.1,2.8.5,5.8,1,8.6.6,1.7-.2,3.9-1.8,4.5-1.7.9,0,3.9,3,5.7,2.8,3.6-1,9.8-5,13.1-5.5,1.6-.2,2.9.7,4.8.4,3.6-.5,8-3.8,11.7-3.7,3.2,0,7.7,1.9,10.9,2,1.9,0,3.7-1.1,5.6-.6,2.3.8,1,8.9,8,10.5,2.8.6,14.4,1.9,17,1.5,1.5-.2,2.6-1.5,4.2-1.2Z"/>
  <path class="st0" d="M16.7-498c-1-.5-2.1-1.4-1.9-2.6,1,.5,2.1,1.4,1.9,2.6Z"/>
  <g>
    <path class="st0" d="M749.6-135.3c0,5.2-4.2,6.5-8.9,6.5h-3.1v7.2h-4.1v-20.6h7c4.2,0,9,.6,9,6.8ZM737.6-131.9h3.3c2.5,0,4.5-.6,4.5-3.3s-2.6-3.7-4.8-3.7h-3.1v7Z"/>
    <path class="st0" d="M759.4-142.1l7.7,20.6h-4.4l-1.4-4.2h-8l-1.4,4.2h-4.1l7.7-20.6h4.1ZM760.1-129l-2.8-8.1-2.8,8.1h5.7Z"/>
    <path class="st0" d="M773-129.6v8.1h-4.1v-20.6h6.7c6.8,0,9.4,1.9,9.4,6.2s-1.2,4.3-3.7,5.4l4.6,8.9h-4.5l-4.1-8.1h-4.3ZM773-132.8h3.3c3.1,0,4.5-1.1,4.5-3.1s-2-3.1-4.7-3.1h-3.1v6.2Z"/>
    <path class="st0" d="M810.6-135.3c0,5.2-4.2,6.5-8.9,6.5h-3.1v7.2h-4.1v-20.6h7c4.2,0,9,.6,9,6.8ZM798.6-131.9h3.3c2.5,0,4.5-.6,4.5-3.3s-2.6-3.7-4.8-3.7h-3.1v7Z"/>
    <path class="st0" d="M816.7-129.6v8.1h-4.1v-20.6h6.7c6.8,0,9.4,1.9,9.4,6.2s-1.2,4.3-3.7,5.4l4.6,8.9h-4.5l-4.1-8.1h-4.3ZM816.7-132.8h3.3c3.1,0,4.5-1.1,4.5-3.1s-2-3.1-4.7-3.1h-3.1v6.2Z"/>
    <path class="st0" d="M830.9-131.9c0-6.4,3.9-10.6,10.1-10.6s10.1,4.3,10.1,10.6-3.9,10.7-10.1,10.7-10.1-4.3-10.1-10.7ZM846.8-131.9c0-4.8-2.7-7.4-5.9-7.4s-5.9,2.6-5.9,7.4,2.7,7.4,5.9,7.4,5.9-2.6,5.9-7.4Z"/>
    <path class="st0" d="M863-121.2c-6.1,0-9.6-4.2-9.6-10.7s3.7-10.5,9.7-10.5,8.1,2.8,8.8,7h-3.9c-.8-2.9-2.7-3.8-5-3.8s-5.5,2.6-5.5,7.3,2.4,7.5,5.4,7.5,4.5-1.1,5.1-3.9h3.9c-.5,4.1-4,7.1-8.9,7.1Z"/>
    <path class="st0" d="M891.8-121.6h-4.1v-8.9h-9.2v8.9h-4.1v-20.6h4.1v8.4h9.2v-8.4h4.1v20.6Z"/>
    <path class="st0" d="M910.5-142.1v3.3h-10.9v5.1h10.3v3.3h-10.3v5.6h10.9v3.3h-15v-20.6h15Z"/>
    <path class="st0" d="M916.4-124.9h10.5v3.3h-15.1v-3.2c6.6-5.3,10.7-8.8,10.7-12s-1.1-2.8-3-2.8-3.5,1-3.5,4.1h-3.8c0-4.3,2.9-7,7.5-7s6.7,2,6.7,5.5-3.7,7.9-10.1,12.1Z"/>
    <path class="st0" d="M927.7-138.8v-3.3h16.7v3.3h-6.4v17.3h-4.1v-17.3h-6.3Z"/>
    <path class="st0" d="M944.5-131.9c0-6.4,3.9-10.6,10.1-10.6s10.1,4.3,10.1,10.6-3.9,10.7-10.1,10.7-10.1-4.3-10.1-10.7ZM960.4-131.9c0-4.8-2.7-7.4-5.9-7.4s-5.9,2.6-5.9,7.4,2.7,7.4,5.9,7.4,5.9-2.6,5.9-7.4Z"/>
    <path class="st0" d="M967.5-121.6v-20.6h4.1v20.6h-4.1Z"/>
  </g>
</svg>